<?xml version="1.0" standalone="no"?>
<!DOCTYPE svg PUBLIC "-//W3C//DTD SVG 20010904//EN"
 "http://www.w3.org/TR/2001/REC-SVG-20010904/DTD/svg10.dtd">
<svg version="1.0" xmlns="http://www.w3.org/2000/svg"
 width="1608.000000pt" height="498.000000pt" viewBox="0 0 1608.000000 498.000000"
 preserveAspectRatio="xMidYMid meet">
<metadata>
Created by potrace 1.10, written by Peter Selinger 2001-2011
</metadata>
<g transform="translate(0.000000,498.000000) scale(0.100000,-0.100000)"
fill="#000000" stroke="none">
<path d="M8530 4550 c-66 -24 -98 -37 -135 -57 -53 -28 -194 -155 -241 -218
-21 -28 -41 -52 -44 -55 -32 -27 -208 -353 -229 -425 -5 -16 -19 -55 -31 -85
-12 -30 -25 -68 -30 -85 -4 -16 -17 -52 -30 -80 -20 -47 -22 -49 -36 -31 -12
17 -14 95 -14 462 0 259 -4 453 -10 468 -5 14 -28 38 -51 53 -41 27 -46 28
-178 28 -129 0 -138 -2 -169 -25 -47 -35 -62 -69 -62 -142 -1 -65 -21 -170
-38 -191 -5 -7 -12 -21 -15 -32 -7 -29 -183 -439 -252 -590 -15 -33 -41 -89
-57 -125 -130 -285 -284 -566 -424 -775 -229 -340 -413 -515 -657 -622 -113
-50 -183 -63 -351 -63 -195 0 -306 28 -422 108 -135 91 -247 228 -224 272 6
11 14 20 19 20 4 0 19 9 32 21 13 12 47 36 74 53 28 18 57 39 65 47 8 8 26 21
40 30 31 20 217 168 313 250 118 101 375 368 436 454 77 108 133 200 160 260
12 28 29 64 37 80 41 85 74 264 74 399 -1 167 -35 278 -118 383 -58 72 -228
183 -281 183 -10 0 -35 7 -54 15 -52 22 -336 21 -432 -1 -119 -27 -177 -47
-269 -92 -118 -58 -205 -118 -294 -206 -299 -291 -472 -735 -472 -1209 0 -127
25 -378 40 -407 4 -8 11 -41 15 -73 4 -31 11 -60 16 -63 17 -10 9 -41 -18 -66
-16 -14 -55 -45 -88 -67 -122 -84 -254 -171 -259 -171 -3 0 -25 -13 -49 -30
-60 -40 -269 -144 -337 -167 -38 -12 -84 -18 -150 -18 -105 0 -133 13 -171 75
-48 78 -49 106 -49 1274 0 1211 4 1138 -63 1183 -68 44 -260 47 -345 5 -19
-10 -45 -36 -59 -60 -29 -48 -22 -49 -143 3 -78 33 -176 64 -270 85 -77 18
-463 25 -515 9 -22 -6 -62 -15 -90 -19 -138 -21 -350 -133 -483 -255 -72 -66
-222 -248 -222 -270 0 -3 -12 -24 -26 -46 -60 -96 -161 -372 -184 -504 -4 -27
-13 -77 -19 -110 -39 -224 -51 -514 -27 -664 9 -54 16 -116 16 -137 0 -70 45
-255 92 -379 61 -162 124 -261 238 -376 94 -95 115 -111 201 -152 120 -58 187
-76 314 -84 173 -10 316 26 474 120 144 86 304 255 413 437 32 51 132 257 169
342 46 109 59 72 59 -166 0 -423 142 -660 432 -722 119 -26 157 -27 237 -9
312 68 645 232 994 487 65 48 82 56 98 48 10 -6 19 -15 19 -19 0 -13 129 -170
168 -205 120 -106 262 -191 399 -237 118 -40 195 -56 363 -74 133 -15 155 -14
265 1 163 22 278 55 398 115 124 61 123 60 222 134 158 117 364 337 481 514
65 99 134 209 157 251 14 25 34 61 45 80 48 79 177 349 237 495 20 50 43 104
50 120 8 17 16 38 19 47 3 9 14 22 25 28 l21 11 0 -835 c0 -553 4 -844 10
-862 24 -63 89 -89 220 -89 143 0 220 33 235 99 3 12 6 104 8 206 2 102 11
246 21 320 18 146 60 394 76 450 6 19 10 50 10 68 0 18 5 42 11 53 6 11 14 41
19 67 38 218 208 712 307 890 43 77 117 195 143 227 50 61 139 142 177 161 57
27 182 25 248 -5 28 -12 64 -28 80 -35 17 -8 71 -32 120 -54 175 -78 243 -95
408 -100 120 -3 147 -7 147 -19 0 -16 -33 -102 -56 -145 -8 -14 -14 -33 -14
-42 0 -8 -6 -30 -14 -48 -17 -40 -31 -94 -57 -218 -71 -342 -69 -804 7 -1090
13 -52 27 -106 30 -120 3 -14 12 -38 19 -55 7 -16 23 -55 35 -85 24 -61 90
-178 124 -219 151 -183 311 -280 513 -310 214 -32 406 11 597 134 115 73 277
251 383 419 37 60 103 191 104 209 1 21 84 181 95 185 20 5 24 -38 24 -286 0
-264 4 -290 68 -421 94 -192 354 -293 597 -231 85 22 121 41 197 106 57 49
158 163 158 180 0 6 6 16 13 22 11 10 53 89 92 177 9 22 20 68 23 103 5 62 5
62 -35 101 -42 40 -118 71 -173 71 -46 0 -86 -33 -118 -98 -16 -31 -41 -80
-56 -109 -73 -137 -180 -184 -251 -109 -29 31 -32 42 -38 118 -4 45 -7 579 -7
1184 0 1214 3 1152 -62 1191 -31 18 -126 36 -188 36 -111 -1 -203 -40 -222
-94 -13 -38 -39 -38 -126 0 -37 16 -85 34 -107 41 -22 7 -55 19 -73 26 -18 8
-48 14 -66 14 -18 0 -53 7 -76 15 -51 18 -431 22 -476 5 -15 -6 -52 -15 -83
-20 -81 -12 -161 -43 -275 -104 -228 -122 -241 -127 -411 -133 -175 -7 -276
22 -600 171 -128 60 -145 66 -166 66 -11 0 -33 7 -48 15 -34 17 -225 29 -261
15z m-6375 -435 c98 -13 138 -22 240 -57 17 -5 44 -13 60 -18 46 -12 149 -66
165 -85 19 -23 21 -282 2 -335 -6 -19 -16 -64 -22 -100 -32 -198 -66 -337
-137 -550 -116 -353 -239 -591 -396 -773 -53 -61 -171 -155 -222 -176 -166
-71 -309 -59 -443 37 -84 61 -173 223 -208 382 -31 137 -34 183 -34 470 0 274
2 304 24 415 58 283 153 476 303 614 68 63 178 131 211 131 7 0 26 7 43 16 32
16 183 41 259 43 25 0 94 -6 155 -14z m8662 0 c151 -20 219 -40 375 -113 61
-28 81 -43 93 -68 19 -41 20 -170 1 -244 -7 -30 -16 -77 -20 -105 -15 -122
-111 -529 -135 -574 -6 -11 -11 -29 -11 -40 0 -11 -6 -35 -14 -53 -8 -18 -33
-82 -56 -143 -224 -586 -538 -872 -855 -780 -85 24 -136 56 -194 122 -113 127
-171 313 -192 616 -10 158 1 453 21 552 5 22 14 67 20 100 7 33 18 75 26 93 8
18 14 41 14 52 0 28 81 198 125 260 55 79 141 166 208 211 32 21 61 39 64 39
3 0 34 13 69 30 63 29 201 57 296 59 26 1 100 -6 165 -14z m-5396 -6 c40 -9
62 -22 99 -58 44 -42 49 -52 55 -105 24 -195 -35 -359 -218 -600 -155 -203
-609 -625 -663 -614 -30 5 -36 56 -38 323 -1 227 1 268 18 325 10 36 22 81 26
100 16 67 49 150 95 239 156 302 381 442 626 390z"/>
</g>
</svg>
